<svg id="logosandtypes_com" xmlns="http://www.w3.org/2000/svg" viewBox="0 0 150 150"><path d="M0 0h150v150H0V0z" fill="none"/><path d="M99.3 82.1c-4.9 0-9.6 2.1-12.9 5.8l-8.1-5.7c.9-2.4 1.3-5 1.3-7.5s-.4-5-1.3-7.4l8-5.7c6.3 7.1 17.2 7.8 24.3 1.5s7.8-17.2 1.5-24.3c-6.3-7.1-17.2-7.8-24.3-1.5-5 4.4-7 11.4-5.1 17.8l-8.1 5.7c-3.4-4.3-8.3-7.1-13.7-8v-9.7c9.3-1.9 15.3-10.9 13.5-20.3-1.8-9.2-10.8-15.3-20.1-13.4S38.9 20.3 40.8 29.6c1.3 6.6 6.4 11.8 12.9 13.4v9.8c-12 2.1-20.1 13.6-18 25.6 1.6 9.3 8.9 16.5 18.2 18v10.4c-9.3 2-15.1 11.2-13.1 20.5s11.2 15.1 20.5 13.1 15.1-11.2 13.1-20.5c-1.4-6.5-6.5-11.6-13.1-13.1V96.5c5.3-.9 10.1-3.7 13.5-7.8l8.1 5.8c-2.7 9.1 2.6 18.6 11.6 21.3s18.6-2.6 21.3-11.6-2.6-18.6-11.6-21.3c-1.6-.6-3.3-.8-4.9-.8zm0-40.1c4.6 0 8.3 3.7 8.3 8.3s-3.7 8.3-8.3 8.3-8.3-3.7-8.3-8.3c0-4.6 3.7-8.3 8.3-8.3zM49.2 26.3c0-4.6 3.7-8.3 8.3-8.3s8.3 3.7 8.3 8.3-3.7 8.3-8.3 8.3c-4.6 0-8.3-3.7-8.3-8.3zm16.7 97.4c0 4.6-3.7 8.3-8.3 8.3s-8.3-3.7-8.3-8.3 3.7-8.3 8.3-8.3c4.5 0 8.3 3.7 8.3 8.3zm-8.4-37.4c-6.4 0-11.6-5.2-11.6-11.6 0-6.4 5.2-11.6 11.6-11.6 6.4 0 11.6 5.2 11.6 11.6 0 6.4-5.2 11.6-11.6 11.6zm41.8 21.3c-4.6 0-8.3-3.7-8.3-8.3s3.7-8.3 8.3-8.3 8.3 3.7 8.3 8.3c0 4.6-3.7 8.3-8.3 8.3z" fill="#010101"/></svg>